<svg width="301.6" height="62.95075937518028" viewBox="0 0 369.9166666666667 77.20999692374704" class="looka-1j8o68f"><defs id="SvgjsDefs7296"></defs><g id="SvgjsG7297" featurekey="symbolFeature-0" transform="matrix(0.8974294087354324,0,0,0.8974294087354324,288.582644385404,-5.700614096871984)" fill="#ab1e00"> <path xmlns="http://www.w3.org/2000/svg" d="m74.93 74.004c0 1.5273-1.2461 2.7695-2.7695 2.7695-1.5273 0-2.7695-1.2422-2.7695-2.7695s1.2461-2.7695 2.7695-2.7695c1.5273 0 2.7695 1.2422 2.7695 2.7695zm4.6172 0c0 4.0781-3.3086 7.3867-7.3867 7.3867s-7.3867-3.3086-7.3867-7.3867 3.3086-7.3867 7.3867-7.3867 7.3867 3.3086 7.3867 7.3867zm-2.7695 0c0-2.5469-2.0703-4.6172-4.6172-4.6172s-4.6172 2.0703-4.6172 4.6172 2.0703 4.6172 4.6172 4.6172 4.6172-2.0703 4.6172-4.6172zm-41.547 0c0 4.0781-3.3086 7.3867-7.3867 7.3867s-7.3867-3.3086-7.3867-7.3867 3.3086-7.3867 7.3867-7.3867 7.3867 3.3086 7.3867 7.3867zm-2.7695 0c0-2.5469-2.0703-4.6172-4.6172-4.6172s-4.6172 2.0703-4.6172 4.6172 2.0703 4.6172 4.6172 4.6172 4.6172-2.0703 4.6172-4.6172zm-4.6172-2.7695c-1.5273 0-2.7695 1.2422-2.7695 2.7695s1.2461 2.7695 2.7695 2.7695c1.5273 0 2.7695-1.2422 2.7695-2.7695s-1.2461-2.7695-2.7695-2.7695zm15.426-31.121 5.5234 5.5234c0.17188-0.35938 0.28516-0.75391 0.28516-1.1797v-3.6914c0-3.5625-2.8984-6.4648-6.4648-6.4648h-3.6914c-1.5273 0-2.7695 1.2422-2.7695 2.7695v3.6914c0 3.5625 2.8984 6.4648 6.4648 6.4648h3.6914c0.42578 0 0.81641-0.11328 1.1797-0.28516l-5.5234-5.5234c-0.35938-0.35938-0.35938-0.94531 0-1.3047s0.94531-0.35938 1.3047 0zm9.25 14.215c0.35938 0.17188 0.75391 0.28516 1.1797 0.28516h3.6914c3.5625 0 6.4648-2.8984 6.4648-6.4648v-3.6914c0-1.5273-1.2461-2.7695-2.7695-2.7695h-3.6914c-3.5625 0-6.4648 2.8984-6.4648 6.4648v3.6914c0 0.42578 0.11328 0.81641 0.28516 1.1797l5.5234-5.5234c0.35938-0.35938 0.94531-0.35938 1.3047 0s0.35938 0.94531 0 1.3047zm35.082 11.734c-10.637-1.7734-23.305-3.1406-37.598-3.1406-10.637 0-23.379 0.73828-37.523 3.1406-1.7734 0.29688-3.1016 1.8828-3.1016 3.6562v0.58984c0 2.0312 1.6602 3.6914 3.6914 3.6914h5.5391c0-5.0898 4.1406-9.2344 9.2344-9.2344s9.2344 4.1406 9.2344 9.2344h25.852c0-5.0898 4.1406-9.2344 9.2344-9.2344s9.2344 4.1406 9.2344 9.2344h5.5391c2.0312 0 3.6914-1.6602 3.6914-3.6914v-0.58984c0-1.7734-1.2539-3.3242-3.0273-3.6562zm-48.68-41.914v-1.8477c0-2.0391-1.6523-3.6914-3.6914-3.6914h-7.3867c-2.0391 0-3.6914 1.6523-3.6914 3.6914v2.1992c1.1992-0.22266 2.4297-0.35156 3.6914-0.35156zm36.773 0.32812c-0.69922-3.3516-3.668-5.8672-7.2266-5.8672h-14.773c-3.4375 0-6.3008 2.3594-7.125 5.5391h25.59c1.207 0 2.3828 0.125 3.5352 0.32812zm-55.242 38.449h0.63281c9.2188-1.1797 18.574-1.7852 27.988-1.8164v-12.953c0-0.035156 0.011719-0.070312 0.011719-0.10547-0.78125 0.60547-1.7188 1.0273-2.7812 1.0273h-3.6914c-4.582 0-8.3086-3.7266-8.3086-8.3086v-3.6914c0-2.5469 2.0703-4.6172 4.6172-4.6172h3.6914c4.582 0 8.3086 3.7266 8.3086 8.3086v2.2305c1.5234-1.9062 3.8398-3.1523 6.4648-3.1523h3.6914c2.5469 0 4.6172 2.0703 4.6172 4.6172v3.6914c0 4.582-3.7305 8.3086-8.3086 8.3086h-3.6914c-1.0586 0-1.9883-0.41797-2.7695-1.0195v5.6758c8.2148 0.039062 16.469 0.53516 24.707 1.457 8.5352-1.6289 14.996-9.1055 14.996-18.117 0-10.199-8.2656-18.465-18.465-18.465h-44.316c-10.199 0-18.465 8.2656-18.465 18.465v7.3867c0 6.1172 4.9609 11.078 11.078 11.078z"></path></g><g id="SvgjsG7298" featurekey="nameFeature-0" transform="matrix(1.3424579507885839,0,0,1.3424579507885839,-1.9331388858177867,-20.56645539639545)" fill="#3183eb"><path d="M21.52 33.16 l0 6.16 c-2.48 0.68 -4.96 0.96 -7.52 0.96 c-7.52 0 -12.56 -5.16 -12.56 -12.48 c0 -7.52 5.24 -12.48 12.52 -12.48 c2.52 0 5.16 0.2 7.56 0.96 l0 6.16 c-1.96 -0.96 -5.04 -1.32 -7.2 -1.32 c-4.88 0 -6.88 2 -6.88 6.64 c0 4.92 2.36 6.72 6.92 6.72 c2.04 0 5.36 -0.32 7.16 -1.32 z M39.8 15.52 l6 0 l0 24.48 l-6 0 l0 -9.44 l-8.8 0 l0 9.44 l-6 0 l0 -24.48 l6 0 l0 9.48 l8.8 0 l0 -9.48 z M65.52 35.04 l-9 0 l-1.76 4.96 l-6.52 0 l9.8 -24.48 l6 0 l9.8 24.48 l-6.56 0 z M58.48 29.48 l5.08 0 l-2.52 -7.12 z M82.28 26.52 l0 13.48 l-6 0 l0 -24.48 l6 0 l7.64 13.52 l7.64 -13.52 l6 0 l0 24.48 l-6 0 l0 -13.48 l-4.64 7.96 l-6 0 z M123.03999999999999 15.52 l6 0 l0 14.48 c0 6.36 -4.56 10.2 -10.6 10.2 c-6.2 0 -10.6 -4.08 -10.6 -10.2 l0 -14.48 l6 0 l0 14.48 c0 2.88 1.72 4.64 4.6 4.64 c2.96 0 4.6 -1.72 4.6 -4.64 l0 -14.48 z M148.84 15.52 l6 0 l0 24.48 l-6 0 l-9.6 -14.32 l0 14.32 l-6 0 l0 -24.48 l6 0 l9.6 14.32 l0 -14.32 z M168.04 40 l-8.6 0 l0 -24.48 l8.6 0 c7.48 0 12.6 4.88 12.6 12.24 c0 7.56 -5.4 12.24 -12.6 12.24 z M165.44 21.08 l0 13.36 l2.6 0 c4.24 0 6.6 -2.68 6.6 -6.68 c0 -0.92 -0.12 -1.76 -0.36 -2.6 c-1.04 -2.92 -3.32 -4.08 -6.24 -4.08 l-2.6 0 z M199.51999999999998 35.04 l-9 0 l-1.76 4.96 l-6.52 0 l9.8 -24.48 l6 0 l9.8 24.48 l-6.56 0 z M192.48 29.48 l5.08 0 l-2.52 -7.12 z"></path></g><g id="SvgjsG7299" featurekey="nameFeature-1" transform="matrix(1.3524177438792861,0,0,1.3524177438792861,-3.0294154367457446,23.280955417430206)" fill="#3183eb"><path d="M2.24 15.52 l6 0 l0 24.48 l-6 0 l0 -24.48 z M28.36 15.52 l6 0 l0 24.48 l-6 0 l-9.6 -14.32 l0 14.32 l-6 0 l0 -24.48 l6 0 l9.6 14.32 l0 -14.32 z M47.56 40 l-8.6 0 l0 -24.48 l8.6 0 c7.48 0 12.6 4.88 12.6 12.24 c0 7.56 -5.4 12.24 -12.6 12.24 z M44.96 21.08 l0 13.36 l2.6 0 c4.24 0 6.6 -2.68 6.6 -6.68 c0 -0.92 -0.12 -1.76 -0.36 -2.6 c-1.04 -2.92 -3.32 -4.08 -6.24 -4.08 l-2.6 0 z M78.76 15.52 l6 0 l0 14.48 c0 6.36 -4.56 10.2 -10.6 10.2 c-6.2 0 -10.6 -4.08 -10.6 -10.2 l0 -14.48 l6 0 l0 14.48 c0 2.88 1.72 4.64 4.6 4.64 c2.96 0 4.6 -1.72 4.6 -4.64 l0 -14.48 z M87.76 39.4 l0 -5.64 c0.48 0.12 1.08 0.24 1.76 0.32 c0.68 0.12 1.4 0.2 2.16 0.24 s1.52 0.08 2.32 0.12 s1.56 0.08 2.24 0.08 c1.88 0 3.2 -0.12 4 -0.32 c0.76 -0.2 1.16 -0.56 1.16 -1.12 c0 -0.48 -0.36 -0.84 -0.72 -1.12 c-1.32 -0.88 -2.88 -1.24 -4.44 -1.6 c-4.4 -0.88 -8.44 -2.64 -8.44 -7.68 c0 -5.96 5.64 -7.36 10.48 -7.36 c2.68 0 5.4 0.28 8 0.92 l0 5.64 c-0.4 -0.12 -0.92 -0.2 -1.56 -0.32 c-0.68 -0.08 -1.36 -0.16 -2.12 -0.24 c-1.56 -0.16 -3.04 -0.24 -4.6 -0.24 c-0.88 0 -2.72 0 -3.56 0.32 c-0.56 0.2 -0.92 0.44 -0.92 1.08 c0 0.32 0.08 0.6 0.24 0.84 c0.16 0.28 0.44 0.48 0.8 0.68 c1.08 0.6 2.48 0.96 3.68 1.24 c1 0.24 2 0.52 3.04 0.8 c3.52 0.96 5.84 2.92 5.84 6.68 c0 6.2 -6.16 7.52 -11.12 7.52 c-2.72 0 -5.56 -0.2 -8.24 -0.84 z M109.00000000000001 15.52 l20.4 0 l0 5.56 l-7.2 0 l0 18.92 l-6 0 l0 -18.92 l-7.2 0 l0 -5.56 z M138.52 21.16 l0 5.84 l5.6 0 c1.84 0 2.92 -1.08 2.92 -2.92 s-1.08 -2.92 -2.92 -2.92 l-5.6 0 z M147.60000000000002 30.96 c1.12 1.52 2.24 3.04 3.4 4.52 c1.12 1.48 2.24 3 3.36 4.52 l-7.32 0 c-1.44 -1.92 -2.84 -3.84 -4.24 -5.76 c-1.4 -1.88 -2.84 -3.8 -4.28 -5.72 l0 11.48 l-6 0 l0 -24.48 l11.6 0 c4.56 0 8.44 3.48 8.44 8.08 c0 3.24 -2 6.08 -4.96 7.36 z M156.84000000000003 15.52 l6 0 l0 24.48 l-6 0 l0 -24.48 z M167.36 15.52 l18.2 0 l0 5.56 l-12.2 0 l0 3.92 l9.8 0 l0 5.56 l-9.8 0 l0 3.88 l12.2 0 l0 5.56 l-18.2 0 l0 -24.48 z M187.76000000000002 39.4 l0 -5.64 c0.48 0.12 1.08 0.24 1.76 0.32 c0.68 0.12 1.4 0.2 2.16 0.24 s1.52 0.08 2.32 0.12 s1.56 0.08 2.24 0.08 c1.88 0 3.2 -0.12 4 -0.32 c0.76 -0.2 1.16 -0.56 1.16 -1.12 c0 -0.48 -0.36 -0.84 -0.72 -1.12 c-1.32 -0.88 -2.88 -1.24 -4.44 -1.6 c-4.4 -0.88 -8.44 -2.64 -8.44 -7.68 c0 -5.96 5.64 -7.36 10.48 -7.36 c2.68 0 5.4 0.28 8 0.92 l0 5.64 c-0.4 -0.12 -0.92 -0.2 -1.56 -0.32 c-0.68 -0.08 -1.36 -0.16 -2.12 -0.24 c-1.56 -0.16 -3.04 -0.24 -4.6 -0.24 c-0.88 0 -2.72 0 -3.56 0.32 c-0.56 0.2 -0.92 0.44 -0.92 1.08 c0 0.32 0.08 0.6 0.24 0.84 c0.16 0.28 0.44 0.48 0.8 0.68 c1.08 0.6 2.48 0.96 3.68 1.24 c1 0.24 2 0.52 3.04 0.8 c3.52 0.96 5.84 2.92 5.84 6.68 c0 6.2 -6.16 7.52 -11.12 7.52 c-2.72 0 -5.56 -0.2 -8.24 -0.84 z"></path></g></svg>